<?xml version="1.0" standalone="no"?> <!DOCTYPE svg PUBLIC "-//W3C//DTD SVG 1.0//EN" "http://www.w3.org/TR/2001/REC-SVG-20010904/DTD/svg10.dtd" > <svg xmlns="http://www.w3.org/2000/svg" width="100%" height="100%">
<defs >
<font id="caborefigurino/flamasemicondensed-semibold" horiz-adv-x="426" ><font-face
    font-family="Flama Semicondensed Semibold"
    units-per-em="1000"
    panose-1="2 0 0 0 0 0 0 0 0 0"
    ascent="950"
    descent="-250"
    alphabetic="0" />
<missing-glyph horiz-adv-x="822" d="M235 118L195 158L380 343L195 528L235 568L420 383L605 568L645 528L460 343L645 158L605 118L420 303L235 118ZM55 -18V698H767V-18H55ZM115 42H707V638H115V42Z" />
<glyph unicode=" " glyph-name="space" horiz-adv-x="180" />
<glyph unicode="!" glyph-name="exclam" horiz-adv-x="262" d="M90 215L66 461V713H196V461L171 215H90ZM68 0V150H193V0H68Z" />
<glyph unicode="&quot;" glyph-name="quotedbl" horiz-adv-x="420" d="M78 445L61 591V713H180V591L163 445H78ZM257 445L240 591V713H360V591L343 445H257Z" />
<glyph unicode="#" glyph-name="numbersign" horiz-adv-x="542" d="M97 -1L121 182H24L34 261H129L158 470H59L69 547H167L190 715H260L239 547H357L379 715H449L427 547H522L513 470H419L390 261H489L480 182H381L358 -1H286L309 182H191L167 -1H97ZM201 261H318L349
470H229L201 261Z" />
<glyph unicode="$" glyph-name="dollar" horiz-adv-x="520" d="M209 -46V29Q98 40 22 115L99 200Q181 132 263 132Q305 132 328 150T352 200Q352 231 331 249T272 283Q272 284 228 303T182 322Q57 379 57 495Q57 561 97 609T209 674V748H318V680Q409 669 474 616L406
527Q330 578 271 578Q233 578 210 561T187 513Q187 487 207 469T266 434L349 398Q484 340 484 221Q484 144 438 95T318 32V-46H209Z" />
<glyph unicode="%" glyph-name="percent" horiz-adv-x="758" d="M182 335Q124 335 84 368T43 460V601Q43 661 83 693T180 725Q238 725 278 693T319 599V459Q319 402 278 369T182 335ZM157 407T181 407T217 420T230 453V610Q230 628 217 641T181 655Q157 655 145
642T132 610V452Q132 432 144 420ZM166 -2L527 720H598L239 -2H166ZM573 -11Q516 -11 476 21T435 113V249Q435 308 475 343T572 379Q630 379 670 347T710 253V115Q710 58 669 24T573 -11ZM549 61T573 61T609 75T621 108V265Q621 283 608 296T573 309Q550 309 537
296T524 265V107Q524 87 536 74Z" />
<glyph unicode="&amp;" glyph-name="ampersand" horiz-adv-x="695" d="M258 -16Q163 -16 105 39T47 186Q47 254 88 310T200 395Q135 474 135 549Q135 621 184 673T336 725Q422 725 476 681T530 567Q530 501 490 451T381 371L495 225Q510 258 527 343L640 327Q622
221 562 139L673 0H509L457 68Q376 -16 258 -16ZM290 97Q354 97 396 141L257 321Q218 304 198 273T178 204Q178 157 208 127T290 97ZM326 443Q409 480 409 560Q409 593 389 612T336 632Q301 632 283 611T264 558Q264 524 326 443Z" />
<glyph unicode="&apos;" glyph-name="quotesingle" horiz-adv-x="241" d="M78 445L61 591V713H180V591L163 445H78Z" />
<glyph unicode="(" glyph-name="parenleft" horiz-adv-x="274" d="M184 -179Q124 -94 88 31T52 275Q52 395 87 513T184 721L261 719Q211 588 191 497T170 275Q170 45 262 -176L184 -179Z" />
<glyph unicode=")" glyph-name="parenright" horiz-adv-x="274" d="M90 -179L12 -176Q104 45 104 275Q104 406 84 498T12 719L90 721Q152 631 187 513T222 275Q222 157 186 32T90 -179Z" />
<glyph unicode="*" glyph-name="asterisk" horiz-adv-x="412" d="M124 367L62 408L139 519L20 587L59 647L169 586V713H244V585L352 647L391 587L272 519L351 408L288 367L206 482L124 367Z" />
<glyph unicode="+" glyph-name="plus" horiz-adv-x="540" d="M229 103V276H64V359H229V532H312V359H476V276H312V103H229Z" />
<glyph unicode="," glyph-name="comma" horiz-adv-x="248" d="M70 -134L108 8H58V150H189V14L133 -134H70Z" />
<glyph unicode="-" glyph-name="hyphen" horiz-adv-x="317" d="M42 253V351H276V253H42Z" />
<glyph unicode="." glyph-name="period" horiz-adv-x="248" d="M58 0V150H189V0H58Z" />
<glyph unicode="/" glyph-name="slash" horiz-adv-x="319" d="M-8 -179L207 718H294L81 -179H-8Z" />
<glyph unicode="0" glyph-name="zero" horiz-adv-x="563" d="M283 -12Q221 -12 170 7T84 72T49 184V527Q49 624 117 674T281 725Q380 725 446 675T512 526V185Q512 89 445 39T283 -12ZM283 101Q328 101 350 125T373 187V532Q373 566 348 589T282 613Q239 613 214
590T189 530V187Q189 147 213 124T283 101Z" />
<glyph unicode="1" glyph-name="one" horiz-adv-x="362" d="M126 0V587L50 568L40 672L188 715H261V0H126Z" />
<glyph unicode="2" glyph-name="two" horiz-adv-x="510" d="M51 0V78L200 274Q258 356 288 413T319 517V531Q319 568 300 590T240 612Q163 612 163 536V513H34V539Q34 629 94 677T254 726Q356 726 407 672T458 530Q458 452 416 373T298 203L235 122V119H468V0H51Z" />
<glyph unicode="3" glyph-name="three" horiz-adv-x="536" d="M271 -12Q164 -12 106 36T47 166V199H177V178Q177 140 202 118T268 96Q316 96 335 121T355 203Q355 243 335 268T293 300T250 307H188V416H243Q343 416 343 518Q343 565 320 588T260 612Q221 612 200
592T179 535V512H51V540Q51 625 110 675T271 725Q370 725 424 674T478 535Q478 475 450 429T369 368V365Q426 351 460 305T495 200Q495 100 430 44T271 -12Z" />
<glyph unicode="4" glyph-name="four" horiz-adv-x="563" d="M327 0V159H43V263L273 713H425L177 270H327V375L455 451V270H525V159H455V0H327Z" />
<glyph unicode="5" glyph-name="five" horiz-adv-x="538" d="M267 -12Q169 -12 110 34T51 155V199H183V173Q183 139 207 117T272 95Q360 95 360 190V271Q360 355 273 355Q229 355 190 316L66 330L86 713H459V593H195L187 410Q238 460 325 460Q396 460 445 418T494
291V179Q494 89 429 39T267 -12Z" />
<glyph unicode="6" glyph-name="six" horiz-adv-x="552" d="M273 -12Q177 -12 114 41T51 186V523Q51 619 116 672T281 725Q378 725 437 679T497 554V516H359V545Q359 579 337 598T276 618Q235 618 213 595T191 534V375Q213 411 253 431T340 451Q412 451 456 404T501
289V175Q501 89 436 39T273 -12ZM238 98T279 98T343 121T367 176V276Q367 318 343 336T285 354Q248 354 220 326T191 254V182Q191 147 214 123Z" />
<glyph unicode="7" glyph-name="seven" horiz-adv-x="505" d="M120 0Q121 178 184 345T318 594H24V713H461V614Q365 495 316 332T268 0H120Z" />
<glyph unicode="8" glyph-name="eight" horiz-adv-x="559" d="M279 -12Q176 -12 113 33T50 165V227Q50 272 75 308T140 362Q103 376 81 411T58 483V547Q58 631 121 678T279 725Q374 725 437 680T500 550V489Q500 448 478 413T417 362Q456 347 482 312T509 232V163Q509
81 444 35T279 -12ZM279 95Q321 95 346 115T371 172V236Q371 275 344 295T279 316T216 296T189 241V170Q189 135 214 115T279 95ZM244 408T280 408T342 429T369 484V544Q369 580 342 599T277 618Q243 618 218 599T192 546V483Q192 448 218 428Z" />
<glyph unicode="9" glyph-name="nine" horiz-adv-x="550" d="M271 -11Q174 -11 115 34T55 157V199H191V169Q191 135 214 116T274 97Q315 97 337 119T359 179V336Q310 263 214 263Q138 263 95 310T51 430V539Q51 626 114 675T275 725Q373 725 436 673T499 532V191Q499
97 435 43T271 -11ZM266 360Q304 360 331 388T359 461V534Q359 569 336 593T272 617Q230 617 207 595T184 539V439Q184 397 208 379T266 360Z" />
<glyph unicode=":" glyph-name="colon" horiz-adv-x="248" d="M58 0V150H189V0H58ZM58 369V518H189V369H58Z" />
<glyph unicode=";" glyph-name="semicolon" horiz-adv-x="248" d="M70 -134L108 8H58V150H189V14L133 -134H70ZM58 369V518H189V369H58Z" />
<glyph unicode="&lt;" glyph-name="less" horiz-adv-x="540" d="M432 109L67 284V353L433 526L472 443L206 318L473 191L432 109Z" />
<glyph unicode="=" glyph-name="equal" horiz-adv-x="540" d="M61 180V273H478V180H61ZM61 356V449H478V356H61Z" />
<glyph unicode="&gt;" glyph-name="greater" horiz-adv-x="540" d="M108 110L67 192L334 319L67 443L108 526L473 353V284L108 110Z" />
<glyph unicode="?" glyph-name="question" horiz-adv-x="495" d="M170 215V244Q172 322 235 391Q237 393 257 415T283 443T300 468T316 501T320 534Q320 572 299 593T239 615Q206 615 184 595T162 536V519H48V536Q48 624 105 673T249 723Q345 723 398 674T451
537Q452 439 364 359Q359 354 345 341T324 321T308 301T294 275T288 247V215H170ZM164 0V150H298V0H164Z" />
<glyph unicode="@" glyph-name="at" horiz-adv-x="885" d="M471 -142Q331 -142 229 -89Q45 7 46 246Q47 439 169 562T479 685Q638 685 739 597T840 356Q840 227 766 145T591 45H479L491 117H488Q430 34 350 34Q294 34 263 63T231 146Q231 164 234 179Q244 251
265 366Q277 435 325 474T436 513Q472 513 501 497T542 448H543L552 506H668L604 122Q673 139 716 204T760 359Q760 426 735 477T667 558T575 601T472 615Q318 615 225 512T132 248Q132 51 281 -26Q358 -66 471 -66Q485 -66 498 -66T522 -65T546 -62T567 -60T588
-57T608 -53T628 -49T647 -44T667 -39T688 -34L704 -102Q603 -142 471 -142ZM404 123Q440 123 469 154T507 229L524 333Q526 345 526 354Q526 389 509 409T462 429Q427 429 405 405T377 341L355 204Q353 192 353 180Q353 152 363 138T404 123Z" />
<glyph unicode="A" glyph-name="A" horiz-adv-x="630" d="M20 0L230 714H404L611 0H467L420 171H198L152 0H20ZM228 280H390L311 575H308L228 280Z" />
<glyph unicode="B" glyph-name="B" horiz-adv-x="608" d="M66 0V713H362Q452 713 502 665T553 536Q553 474 520 427T431 366V364Q491 352 526 305T561 196Q561 105 508 53T366 0H66ZM208 111H321Q365 111 390 138T416 213Q416 260 388 283T313 306H208V111ZM208
416H310Q355 416 383 441T411 515Q411 558 386 581T319 604H208V416Z" />
<glyph unicode="C" glyph-name="C" horiz-adv-x="599" d="M311 -12Q198 -12 125 45T51 216V497Q51 602 125 663T310 725Q416 725 484 671T552 520V472H423V507Q423 554 393 581T310 609Q256 609 226 579T195 496V222Q195 164 226 134T312 104Q362 104 392 131T423
203V242H552V194Q552 97 484 43T311 -12Z" />
<glyph unicode="D" glyph-name="D" horiz-adv-x="619" d="M66 0V713H327Q435 713 502 660T569 504V222Q569 112 502 56T327 0H66ZM209 115H312Q368 115 396 148T425 226V488Q425 537 396 567T311 598H209V115Z" />
<glyph unicode="E" glyph-name="E" horiz-adv-x="556" d="M66 0V713H508V596H209V422H447V305H209V118H509V0H66Z" />
<glyph unicode="F" glyph-name="F" horiz-adv-x="541" d="M66 0V713H508V598H209V416H446V301H209V0H66Z" />
<glyph unicode="G" glyph-name="G" horiz-adv-x="608" d="M310 -12Q197 -12 124 45T51 216V497Q51 603 125 664T310 725Q414 725 484 674T555 528V481H424V512Q424 557 393 584T313 612Q258 612 226 580T194 495V220Q194 165 225 134T312 102Q422 102 422 202V284H303V387H556V191Q556
95 486 42T310 -12Z" />
<glyph unicode="H" glyph-name="H" horiz-adv-x="643" d="M66 0V713H209V427H435V713H578V0H435V302H209V0H66Z" />
<glyph unicode="I" glyph-name="I" horiz-adv-x="274" d="M66 0V713H209V0H66Z" />
<glyph unicode="J" glyph-name="J" horiz-adv-x="563" d="M266 -12Q26 -12 26 200V259H163V205Q163 102 263 102Q315 102 338 131T361 204V713H503V218Q503 112 441 50T266 -12Z" />
<glyph unicode="K" glyph-name="K" horiz-adv-x="614" d="M66 0V713H209V374L443 713H589L393 434L586 0H430L288 325L209 216V0H66Z" />
<glyph unicode="L" glyph-name="L" horiz-adv-x="546" d="M66 0V713H209V118H509V0H66Z" />
<glyph unicode="M" glyph-name="M" horiz-adv-x="745" d="M66 0V713H249L377 390H380L508 713H679V0H554V526H552L421 185H326L194 525H191V0H66Z" />
<glyph unicode="N" glyph-name="N" horiz-adv-x="647" d="M66 0V713H207L453 282H455V713H583V0H463L195 467H193V0H66Z" />
<glyph unicode="O" glyph-name="O" horiz-adv-x="624" d="M312 -12Q197 -12 124 45T51 222V485Q51 600 124 662T311 725Q385 725 442 702T537 625T574 491V228Q574 110 500 49T312 -12ZM313 106Q367 106 398 138T430 224V494Q430 548 397 578T310 608Q254 608
225 576T195 488V225Q195 169 225 138T313 106Z" />
<glyph unicode="P" glyph-name="P" horiz-adv-x="592" d="M66 0V713H331Q437 713 492 652T548 493Q548 389 491 324T323 258H209V0H66ZM209 366H296Q350 366 379 398T409 487Q409 538 382 569T306 601H209V366Z" />
<glyph unicode="Q" glyph-name="Q" horiz-adv-x="624" d="M521 -108L358 -8Q338 -12 312 -12Q197 -12 124 45T51 222V485Q51 600 124 662T311 725Q385 725 442 702T537 625T574 491V228Q574 111 500 57L599 7L521 -108ZM313 106Q367 106 398 138T430 224V494Q430
548 397 578T310 608Q254 608 225 576T195 488V225Q195 169 225 138T313 106Z" />
<glyph unicode="R" glyph-name="R" horiz-adv-x="615" d="M66 0V713H329Q441 713 500 655T559 499Q559 423 526 370T427 297L579 0H425L295 272H209V0H66ZM209 378H308Q418 378 418 490Q418 542 392 571T312 601H209V378Z" />
<glyph unicode="S" glyph-name="S" horiz-adv-x="577" d="M278 -12Q120 -12 29 74L102 174Q145 141 186 123T284 105Q330 105 360 127T390 185T367 242T298 284L202 324Q61 382 61 515Q61 603 126 664T297 725Q425 725 512 652L438 553Q356 614 291 614Q247 614
222 594T197 536Q197 504 220 484T291 443L373 407Q533 338 533 209Q533 107 459 48T278 -12Z" />
<glyph unicode="T" glyph-name="T" horiz-adv-x="567" d="M213 0V598H23V713H545V598H356V0H213Z" />
<glyph unicode="U" glyph-name="U" horiz-adv-x="634" d="M315 -12Q198 -12 129 45T60 218V713H203V226Q203 163 236 133T321 103T404 135T435 224V713H572V225Q573 113 502 51T315 -12Z" />
<glyph unicode="V" glyph-name="V" horiz-adv-x="584" d="M216 -2L20 713H165L299 181H301L433 713H564L367 -2H216Z" />
<glyph unicode="W" glyph-name="W" horiz-adv-x="834" d="M174 -2L23 713H162L252 242H255L355 713H495L590 243H592L680 713H812L660 -2H523L419 492H415L310 -2H174Z" />
<glyph unicode="X" glyph-name="X" horiz-adv-x="575" d="M15 0L200 366L29 713H183L295 475L405 713H545L372 367L559 0H408L280 259L155 0H15Z" />
<glyph unicode="Y" glyph-name="Y" horiz-adv-x="575" d="M216 0V289L17 713H168L296 417L424 713H558L359 288V0H216Z" />
<glyph unicode="Z" glyph-name="Z" horiz-adv-x="544" d="M44 0V86L336 600H49V713H503V615L218 115H499V0H44Z" />
<glyph unicode="[" glyph-name="bracketleft" horiz-adv-x="295" d="M80 -176V713H269V633H195V-98H269V-176H80Z" />
<glyph unicode="\" glyph-name="backslash" horiz-adv-x="319" d="M236 -179L23 718H110L325 -179H236Z" />
<glyph unicode="]" glyph-name="bracketright" horiz-adv-x="295" d="M25 -176V-98H99V633H25V713H215V-176H25Z" />
<glyph unicode="^" glyph-name="asciicircum" horiz-adv-x="482" d="M93 161L200 581H292L388 161H305L244 465Q178 163 177 161H93Z" />
<glyph unicode="_" glyph-name="underscore" horiz-adv-x="461" d="M0 -122V-36H461V-122H0Z" />
<glyph unicode="`" glyph-name="grave" horiz-adv-x="288" d="M142 584L23 739H154L240 584H142Z" />
<glyph unicode="a" glyph-name="a" horiz-adv-x="517" d="M187 -11Q123 -11 81 28T39 140Q39 186 59 221T114 275T185 303T261 313H326V377Q326 409 306 426T249 444Q213 444 193 426T172 378V355H53V384Q53 455 112 496T261 537Q347 537 403 496T459 374V124Q459
102 465 0H343Q343 3 342 12T340 39T338 76H333Q318 42 289 22T236 -5T187 -11ZM242 86Q276 86 301 111T326 178V235H270Q172 235 172 160Q172 124 191 105T242 86Z" />
<glyph unicode="b" glyph-name="b" horiz-adv-x="535" d="M324 -12Q283 -12 242 12T185 76H183L179 0H61V713H193V450H196Q217 490 257 514T338 538Q412 538 449 490T487 369V163Q487 88 441 38T324 -12ZM286 84Q355 84 355 165V358Q355 434 282 434Q248 434 221
404T193 322V190Q193 144 221 114T286 84Z" />
<glyph unicode="c" glyph-name="c" horiz-adv-x="494" d="M257 -12Q165 -12 107 36T48 179V338Q48 434 108 485T257 537Q346 537 400 493T455 374V339H335V365Q335 395 317 415T261 436Q181 436 181 350V176Q181 135 202 112T264 88Q301 88 318 110T335 163V186H455V149Q455
75 401 32T257 -12Z" />
<glyph unicode="d" glyph-name="d" horiz-adv-x="535" d="M198 -12Q123 -12 86 36T48 158V366Q48 439 94 488T211 537Q248 537 283 519T340 467H341V713H474V0H351L348 81H344Q320 38 281 13T198 -12ZM251 91Q287 91 314 122T342 201V338Q342 382 313 411T249
441Q180 441 180 358V167Q180 91 251 91Z" />
<glyph unicode="e" glyph-name="e" horiz-adv-x="510" d="M265 -12Q169 -12 109 37T48 186V325Q48 426 109 481T262 537Q354 537 410 485T466 343V227H181V183Q181 93 287 93Q343 93 423 125L453 37Q377 -12 265 -12ZM181 311H339V355Q339 392 320 416T260 441Q222
441 202 417T181 357V311Z" />
<glyph unicode="f" glyph-name="f" horiz-adv-x="351" d="M97 0V413H31V520H97V582Q97 653 139 689T249 726Q299 726 331 717V618Q311 623 278 623Q229 623 229 578V520H318V413H229V0H97Z" />
<glyph unicode="g" glyph-name="g" horiz-adv-x="534" d="M247 -188Q135 -188 56 -151L93 -49Q172 -83 238 -83Q342 -83 342 6V110H341Q321 66 284 42T204 18Q128 18 88 61T48 177V374Q48 447 96 492T215 538Q256 538 295 516T353 456H354L358 526H475V30Q475
-75 416 -131T247 -188ZM251 116Q286 116 313 148T341 230V343Q341 387 313 414T252 442Q180 442 180 354V196Q180 116 251 116Z" />
<glyph unicode="h" glyph-name="h" horiz-adv-x="542" d="M61 0V713H193V449H195Q244 537 347 537Q406 537 445 497T485 392V0H353V356Q353 434 284 434Q249 434 221 404T193 328V0H61Z" />
<glyph unicode="i" glyph-name="i" horiz-adv-x="253" d="M61 0V525H193V0H61ZM61 590V724H193V590H61Z" />
<glyph unicode="j" glyph-name="j" horiz-adv-x="262" d="M61 -188Q25 -188 0 -183V-75Q10 -77 27 -77Q54 -77 62 -63T71 -20V525H203V-44Q203 -114 165 -151T61 -188ZM71 590V724H203V590H71Z" />
<glyph unicode="k" glyph-name="k" horiz-adv-x="508" d="M61 0V713H193V299L347 525H488L359 348L490 0H350L260 251L193 158V0H61Z" />
<glyph unicode="l" glyph-name="l" horiz-adv-x="299" d="M190 -9Q127 -9 92 22T57 113V713H190V148Q190 103 237 103Q250 103 274 107V6Q234 -9 190 -9Z" />
<glyph unicode="m" glyph-name="m" horiz-adv-x="833" d="M61 0V525H187V443H189Q240 537 347 537Q393 537 428 512T477 446H480Q534 537 638 537Q695 537 736 498T778 394V0H646V359Q646 434 577 434Q542 434 514 405T485 331V0H353V362Q351 434 284 434Q249
434 221 404T193 328V0H61Z" />
<glyph unicode="n" glyph-name="n" horiz-adv-x="541" d="M61 0V525H188V445H190Q241 537 347 537Q404 537 444 497T485 392V0H353V358Q353 434 284 434Q249 434 221 404T193 328V0H61Z" />
<glyph unicode="o" glyph-name="o" horiz-adv-x="523" d="M262 -12Q168 -12 108 36T48 182V338Q48 433 108 485T260 537Q353 537 414 488T475 341V184Q475 87 414 38T262 -12ZM263 89Q342 89 342 178V348Q342 387 321 411T261 436Q220 436 201 411T181 344V177Q181
89 263 89Z" />
<glyph unicode="p" glyph-name="p" horiz-adv-x="535" d="M61 -178V525H188V444H190Q214 489 255 513T337 538Q411 538 449 491T487 371V166Q487 90 442 39T323 -12Q286 -12 249 8T195 64H193V-178H61ZM286 84Q355 84 355 164V357Q355 434 282 434Q245 434 219
403T193 318V193Q193 145 221 115T286 84Z" />
<glyph unicode="q" glyph-name="q" horiz-adv-x="532" d="M342 -178V78H340Q317 36 278 12T199 -12Q125 -12 87 36T48 157V363Q48 440 94 488T212 537Q253 537 292 516T351 456H353L358 526H475V-178H342ZM248 91Q282 91 312 122T342 203V335Q342 382 314 411T249
441Q180 441 180 358V164Q180 91 248 91Z" />
<glyph unicode="r" glyph-name="r" horiz-adv-x="381" d="M61 0V525H189V441H190Q213 487 242 509T317 531Q343 531 362 527V408Q338 411 312 411Q267 411 231 388T193 310V0H61Z" />
<glyph unicode="s" glyph-name="s" horiz-adv-x="468" d="M229 -12Q99 -12 23 65L90 151Q170 88 228 88Q264 88 284 102T304 141Q304 159 292 171T267 190T225 205L177 221Q53 258 53 373Q53 439 102 488T239 537Q346 537 416 477L351 391Q292 437 237 437Q207
437 190 425T173 392Q173 370 186 359T230 335L296 313Q431 268 431 155Q431 80 373 34T229 -12Z" />
<glyph unicode="t" glyph-name="t" horiz-adv-x="383" d="M241 -10Q183 -10 144 18T104 113V413H31V519H104V658H238V519H357V413H238V154Q238 106 289 106Q312 106 344 113V7Q293 -10 241 -10Z" />
<glyph unicode="u" glyph-name="u" horiz-adv-x="540" d="M201 -12Q142 -12 100 26T58 133V525H190V171Q190 91 257 91Q295 91 322 122T350 200V525H482V0H359L355 82H353Q334 42 292 15T201 -12Z" />
<glyph unicode="v" glyph-name="v" horiz-adv-x="485" d="M179 -1L16 525H157L248 181H250L345 525H468L304 -1H179Z" />
<glyph unicode="w" glyph-name="w" horiz-adv-x="719" d="M150 -1L21 525H158L220 210H225L303 525H430L506 210H510L577 525H697L565 -1H447L362 360H359L271 -1H150Z" />
<glyph unicode="x" glyph-name="x" horiz-adv-x="478" d="M9 0L164 269L22 525H165L252 361L336 525H463L319 272L469 0H327L231 180L136 0H9Z" />
<glyph unicode="y" glyph-name="y" horiz-adv-x="488" d="M127 -188Q82 -188 47 -179L54 -71Q84 -79 118 -79Q160 -79 176 -35L190 12L14 525H153L257 184H258L355 525H475L298 -40Q273 -118 231 -153T127 -188Z" />
<glyph unicode="z" glyph-name="z" horiz-adv-x="462" d="M40 0V84L261 423H46V525H421V438L205 103H421V0H40Z" />
<glyph unicode="{" glyph-name="braceleft" horiz-adv-x="296" d="M166 -176Q128 -176 105 -153T82 -83V189Q82 220 73 232T40 247V327Q67 332 74 341T82 375V618Q82 665 105 689T167 713H273V638H210Q190 638 190 615V385Q190 346 181 325T145 294V289Q174 277
182 259T190 198V-79Q190 -101 210 -101H273V-176H166Z" />
<glyph unicode="|" glyph-name="bar" horiz-adv-x="282" d="M101 -53V721H181V-53H101Z" />
<glyph unicode="}" glyph-name="braceright" horiz-adv-x="296" d="M23 -176V-101H86Q105 -101 105 -79V198Q105 240 113 258T151 289V294Q125 304 115 325T105 385V617Q105 639 86 639H23V714H129Q168 714 191 690T214 620V375Q214 351 221 342T254 327V247Q230
245 222 233T214 189V-83Q214 -129 191 -152T129 -176H23Z" />
<glyph unicode="~" glyph-name="asciitilde" horiz-adv-x="540" d="M106 242L47 254Q55 308 81 342T152 376Q180 376 271 360T389 343Q419 343 435 390L493 376Q475 254 389 254Q362 254 270 270T151 287Q131 287 123 277T106 242Z" />
</font>
</defs>
</svg>
